<svg xmlns="http://www.w3.org/2000/svg" viewBox="0 0 230 240" role="img" aria-labelledby="title">
  <title id="title">Abstract artist avatar</title>
  <rect width="230" height="240" fill="#f1e9e2"/>
  <circle cx="168" cy="54" r="46" fill="#e8b44f"/>
  <path d="M31 220c8-65 42-100 86-100s80 35 86 100" fill="#275b5a"/>
  <path d="M72 95c0-42 22-67 54-67 35 0 59 27 59 68 0 46-25 75-58 75-32 0-55-30-55-76Z" fill="#d99178"/>
  <path d="M67 88c4-48 29-72 63-72 34 0 58 21 64 61-22-8-38-22-47-41-13 26-40 44-80 52Z" fill="#242229"/>
  <path d="M91 102c7-5 14-5 21 0M143 102c7-5 14-5 21 0" fill="none" stroke="#242229" stroke-width="4" stroke-linecap="round"/>
  <path d="M119 128c8 6 17 6 25 0" fill="none" stroke="#8b403d" stroke-width="4" stroke-linecap="round"/>
  <circle cx="43" cy="48" r="22" fill="#b64f45"/>
  <path d="M24 194c28-19 55-19 82 0" fill="none" stroke="#f7f3f0" stroke-width="8" stroke-linecap="round"/>
</svg>
